<svg id="Layer_1" data-name="Layer 1" xmlns="http://www.w3.org/2000/svg" viewBox="0 0 498 201.8"><defs><style>.cls-1{fill:#030000;}.cls-2{font-size:48.31px;font-family:LucidaCalligraphy-Italic, Lucida Calligraphy;font-style:italic;}.cls-2,.cls-4{fill:#ed1c24;}.cls-3{fill:#ed2227;}</style></defs><title>Salt&amp;apos;n Pepper restaurant logo vector </title><rect class="cls-1" x="166.14" y="61.79" width="17.18" height="42.42"/><path class="cls-1" d="M188.1,61.79H190a14.74,14.74,0,0,1,14.74,14.74v27.14a.54.54,0,0,1-.54.54H188.1a.54.54,0,0,1-.54-.54V62.33a.54.54,0,0,1,.54-.54Z"/><rect class="cls-1" x="228.21" y="31.11" width="27.15" height="74.66"/><rect class="cls-1" x="329.17" y="61.79" width="17.53" height="58.96"/><rect class="cls-1" x="374.14" y="61.79" width="17.53" height="58.96"/><rect class="cls-1" x="461.8" y="61.79" width="17.53" height="42.56"/><circle class="cls-1" cx="489.08" cy="69.7" r="8.92"/><path class="cls-1" d="M395.91,61.79h2.19A17.61,17.61,0,0,1,415.71,79.4v7.35a17.61,17.61,0,0,1-17.61,17.61h-2.19a0,0,0,0,1,0,0V61.79A0,0,0,0,1,395.91,61.79Z"/><path class="cls-1" d="M350.52,61.79h2.19A17.61,17.61,0,0,1,370.32,79.4v7.35a17.61,17.61,0,0,1-17.61,17.61h-2.19a0,0,0,0,1,0,0V61.79A0,0,0,0,1,350.52,61.79Z"/><rect class="cls-1" x="100.98" y="45.25" width="16.68" height="58.96"/><path class="cls-1" d="M260.74,31.11h9.8a19.68,19.68,0,0,1,19.68,19.68v4.89a19.68,19.68,0,0,1-19.68,19.68h-9.8a0,0,0,0,1,0,0V31.11A0,0,0,0,1,260.74,31.11Z"/><path class="cls-1" d="M559.39,461v21.21h16.47S577.77,460.61,559.39,461Z" transform="translate(-251 -399.1)"/><path class="cls-1" d="M692.87,461v21.21h16.47S711.25,460.61,692.87,461Z" transform="translate(-251 -399.1)"/><path class="cls-1" d="M555.14,460.89v38.75s11.6,2.82,19-10.75v7.63S563.77,511,546,501.61c0,0-11.59-6.08-9.05-24.74C536.9,476.87,538.46,461.32,555.14,460.89Z" transform="translate(-251 -399.1)"/><path class="cls-1" d="M688.93,460.3v38.75s11.59,2.82,19-10.75v7.64s-10.32,14.42-28.14,5.09c0,0-11.6-6.08-9-24.75C670.69,476.28,672.24,460.73,688.93,460.3Z" transform="translate(-251 -399.1)"/><polygon class="cls-1" points="141.96 45.25 120.19 67.02 124.43 67.02 124.43 104.21 141.96 104.21 141.96 67.31 147.05 67.31 147.05 61.79 141.96 61.79 141.96 45.25"/><circle class="cls-1" cx="67.35" cy="70.42" r="8.63"/><path class="cls-1" d="M66,81.16h8.41a0,0,0,0,1,0,0v23a0,0,0,0,1,0,0H66A10.25,10.25,0,0,1,55.71,94V91.41A10.25,10.25,0,0,1,66,81.16Z"/><text class="cls-2" transform="translate(141.02 186.08)">Restaurant</text><polygon class="cls-3" points="160.34 41.01 171.66 41.01 155.96 66.03 150.73 66.03 160.34 41.01"/><path class="cls-1" d="M329.62,503.31h17.53V473.83s-.12-13.44-13-12.94c0,0-5.37-.14-8.77,1,0,0,4.39,1.56,4.25,8.34Z" transform="translate(-251 -399.1)"/><polygon class="cls-1" points="24.25 31.04 52.03 31.04 52.03 65.4 24.25 31.04"/><polygon class="cls-1" points="1.77 105.48 30.19 105.48 1.77 69.21 1.77 105.48"/><path d="M274.21,430.26c-2.52,2.29-3,4.11-1.67,7.13a15.38,15.38,0,0,0,1.95,3.33q12.69,16.18,25.43,32.31a24.93,24.93,0,0,1,5.36,11.51c1.43,8.82-4.92,18.59-13.41,20.06-2.91.5-6,.08-9.07.08a3.92,3.92,0,0,1,.25-.32c2.76-3,2.91-5.44.39-8.67-3.41-4.37-6.87-8.7-10.31-13-5.74-7.24-11.54-14.43-17.19-21.73-4.58-5.91-6.31-12.5-3.76-19.76s8-10.9,15.52-10.9Z" transform="translate(-251 -399.1)"/><rect class="cls-4" x="0.28" y="159.78" width="131.5" height="17.82"/><rect class="cls-4" x="447.38" y="159.78" width="50.05" height="17.82"/><rect class="cls-4" x="0.92" width="496.23" height="6.36"/></svg>